<?xml version="1.0" encoding="UTF-8" standalone="no"?>
<!-- Created with Inkscape (http://www.inkscape.org/) -->

<svg
   width="555.2171mm"
   height="427.16446mm"
   viewBox="0 0 555.2171 427.16446"
   version="1.1"
   id="svg1"
   xml:space="preserve"
   inkscape:export-filename="Logo 2.png"
   inkscape:export-xdpi="96"
   inkscape:export-ydpi="96"
   xmlns:inkscape="http://www.inkscape.org/namespaces/inkscape"
   xmlns:sodipodi="http://sodipodi.sourceforge.net/DTD/sodipodi-0.dtd"
   xmlns="http://www.w3.org/2000/svg"
   xmlns:svg="http://www.w3.org/2000/svg"><sodipodi:namedview
     id="namedview1"
     pagecolor="#505050"
     bordercolor="#eeeeee"
     borderopacity="1"
     inkscape:showpageshadow="0"
     inkscape:pageopacity="0"
     inkscape:pagecheckerboard="0"
     inkscape:deskcolor="#505050"
     inkscape:document-units="mm"><inkscape:page
       x="0"
       y="0"
       width="555.2171"
       height="427.16446"
       id="page2"
       margin="0"
       bleed="0" /></sodipodi:namedview><defs
     id="defs1" /><g
     inkscape:label="Capa 1"
     inkscape:groupmode="layer"
     id="layer1"
     transform="translate(172.55873,65.233498)"><path
       style="fill:#000000"
       d="m 150.50558,361.77225 c -10.27827,-0.57998 -21.30334,-2.51898 -30.81866,-5.42015 -13.76676,-4.19741 -24.641799,-8.5188 -37.084007,-14.736 -15.676425,-7.8333 -30.964433,-17.73113 -44.518105,-28.82211 -0.893877,-0.73146 -1.965297,-1.60776 -2.380934,-1.94733 -1.300286,-1.06233 -5.606413,-4.76373 -7.287631,-6.26421 -1.541418,-1.3757 -2.004097,-1.79739 -4.660893,-4.24795 -1.530568,-1.41176 -7.648999,-7.4519 -10.588201,-10.45271 -4.68667,-4.78491 -10.484915,-11.21033 -14.6445037,-16.22854 -0.9263781,-1.1176 -1.7299565,-2.0701 -1.7857298,-2.11666 -0.055773,-0.0466 -1.4707243,-1.79917 -3.1443356,-3.89467 -7.7231169,-9.66998 -14.6634879,-19.36494 -22.1835189,-30.988 -3.56121,-5.50425 -8.195951,-13.31159 -13.520327,-22.77533 -0.321357,-0.5712 -1.783411,-3.26293 -3.219153,-5.92667 -1.253956,-2.32647 -5.365697,-10.46025 -7.052592,-13.95133 -1.097593,-2.27149 -2.018608,-4.15297 -2.046701,-4.18106 -0.02809,-0.0281 -0.849296,-0.21523 -1.824897,-0.41585 -15.581838,-3.20421 -29.605367,-10.78979 -40.982435,-22.16815 -4.093056,-4.09352 -7.307376,-8.00198 -10.312026,-12.53895 -2.19996,-3.32191 -8.2564,-13.85746 -12.75185,-22.18266 -5.24528,-9.71383 -6.83144,-12.77401 -11.62944,-22.43667 -4.79101,-9.6486 -7.6338,-15.713284 -13.2158,-28.193999 -1.47559,-3.29925 -4.72111,-10.925302 -6.34176,-14.901334 -0.43656,-1.071033 -1.09176,-2.671233 -1.456,-3.556 -2.46301,-5.9829 -7.2062,-18.434182 -9.67587,-25.4 -0.74294,-2.0955 -1.50671,-4.2291 -1.69727,-4.741334 -0.54989,-1.478176 -3.605,-10.551759 -4.98325,-14.800094 -2.74208,-8.452245 -3.40177,-12.5755702 -3.23411,-20.2146073 0.14114,-6.4310024 1.02977,-11.0823127 3.24221,-16.9706327 4.70697,-12.527446 14.3801,-22.478148 26.48572,-27.245763 6.96111,-2.741526 12.92106,-3.572574 25.62278,-3.572806 l 5.36072,-9.8e-5 0.97047,-1.458534 c 1.45593,-2.188134 2.75778,-3.735683 4.71269,-5.602152 6.531404,-6.2359 15.601628,-8.779103 24.066066,-6.74789 11.746499,2.81881 20.650494,13.522962 22.188972,26.675009 1.786301,15.270625 -6.456234,29.7221283 -19.552185,34.2805298 -3.14236,1.0937838 -4.742418,1.3482083 -8.478788,1.3482083 -2.780325,0 -3.578621,-0.059703 -5.052902,-0.3778962 -4.389806,-0.9474494 -8.554793,-2.9561315 -11.750163,-5.6668447 l -1.1134,-0.9445323 -6.04305,-0.2098335 c -6.46351,-0.2244333 -13.03513,-0.035797 -15.04721,0.4319263 -1.3129,0.3051938 -2.14107,0.9014176 -2.96414,2.1339795 -1.27367,1.9073301 -1.82508,4.7849001 -1.38185,7.2113072 0.11715,0.6413313 1.33863,4.5569569 2.7144,8.7013906 3.94171,11.87421 7.3664,21.282461 12.45105,34.205334 1.75009,4.447933 5.94642,14.530973 7.61105,18.288 0.30948,0.6985 1.13345,2.5654 1.83104,4.148666 6.11401,13.876578 15.428907,32.832973 22.133305,45.04267 6.065029,11.04531 9.842292,17.6532 11.539361,20.18681 2.179877,3.2544 5.029831,6.35416 8.186511,8.90408 8.35206,6.74666 18.701823,9.67066 31.242002,8.82645 8.064713,-0.54292 13.225664,-1.81976 18.791246,-4.64902 3.959046,-2.01258 6.8474628,-4.11694 10.0926566,-7.35302 3.87213365,-3.86126 5.32323469,-6.06982 12.9106842,-19.64997 1.3446833,-2.40674 4.5182522,-8.23893 5.6667432,-10.414 0.614709,-1.16417 1.581721,-2.99297 2.148916,-4.064 2.871382,-5.422027 13.720425,-27.435194 13.720425,-27.839324 0,-0.03422 0.3315,-0.775728 0.736667,-1.647785 6.692373,-14.40425 14.316695,-33.007146 20.012599,-48.829558 1.97829,-5.495411 2.646967,-7.437546 5.159674,-14.986 1.472593,-4.4238333 2.770353,-8.612752 2.883911,-9.3087081 0.479505,-2.9387004 -0.540521,-6.5719307 -2.271832,-8.0920418 -1.0666,-0.9364878 -2.206077,-1.2264494 -5.59936,-1.4248642 -3.005279,-0.175727 -14.009523,-0.083953 -16.725292,0.1394873 -1.285494,0.1057642 -1.325832,0.1233997 -2.455333,1.0734581 -7.48632,6.29697631 -17.51474,7.96999736 -26.4637025,4.4148862 -8.5632363,-3.4018756 -15.0719795,-11.1378015 -17.6750345,-21.0075515 -0.795364,-3.015704 -1.031022,-5.04686 -1.021605,-8.805333 0.0071,-2.826017 0.08036,-3.880559 0.394188,-5.672667 1.716618,-9.802664 7.1547645,-17.849839 15.1414723,-22.405808 5.3160175,-3.032491 11.9058407,-4.068549 17.9357727,-2.81988 4.004932,0.829335 8.346325,2.949813 11.669846,5.699932 2.2348,1.849233 4.82903,4.812037 6.206519,7.088304 l 0.562489,0.929501 6.041511,0.006 c 6.325887,0.0063 11.534098,0.248512 14.677512,0.682503 13.037245,1.799966 24.135473,8.519367 31.854211,19.286069 4.358024,6.078914 7.41007,13.905261 8.650592,22.1826668 0.472716,3.1542065 0.425945,11.4847566 -0.08271,14.7320002 -0.802466,5.12291 -2.725322,11.465093 -8.111622,26.754667 -2.69707,7.655914 -3.737691,10.462325 -8.126647,21.916452 -1.721648,4.49309 -5.986785,14.881278 -8.48696,20.670882 -5.438506,12.593835 -10.311261,23.084349 -16.242029,34.967332 -2.910492,5.83151 -6.120893,12.0975 -6.984062,13.63133 -0.340671,0.60537 -0.875141,1.59597 -1.187711,2.20133 -0.721027,1.39645 -3.402542,6.36023 -4.573829,8.46667 -1.101952,1.98175 -5.170844,9.19806 -5.96738,10.58333 -0.32131,0.5588 -1.175965,2.0447 -1.899232,3.302 -5.669094,9.85494 -13.052836,18.23482 -22.024113,24.99537 -6.9994553,5.27463 -15.00680269,9.44957 -23.4935117,12.24925 -0.90805,0.29955 -1.6510001,0.60049 -1.6510001,0.66874 0,0.18456 1.3340277,2.72361 3.4343871,6.53665 25.5668427,46.41457 57.7660717,81.85634 94.1862857,103.6711 9.768254,5.85093 20.449279,11.01705 30.749729,14.87281 4.96895,1.86002 13.15593,4.50487 16.67081,5.38561 11.80661,2.95842 25.25009,3.55173 36.48413,1.61019 5.79861,-1.00216 12.32532,-3.20444 21.50534,-7.25648 1.69178,-0.74675 9.16861,-4.45477 10.38219,-5.1489 0.39003,-0.22308 1.89024,-1.0721 3.33381,-1.88671 14.71194,-8.30201 30.45392,-20.14861 45.212,-34.02423 1.79954,-1.69194 10.48425,-10.38331 12.19234,-12.20169 1.38235,-1.47162 4.27216,-4.6277 5.34109,-5.83322 0.36845,-0.41554 1.01811,-1.13944 1.44369,-1.60867 5.87112,-6.47331 15.08768,-18.13648 21.34813,-27.01515 6.3193,-8.96212 13.26209,-19.93928 17.40362,-27.51666 0.30542,-0.5588 1.22484,-2.2352 2.04316,-3.72534 4.73015,-8.61342 9.1475,-17.62534 12.44248,-25.3841 6.45846,-15.20791 10.50179,-28.75512 13.44826,-45.05857 1.06959,-5.91826 2.3611,-14.33129 2.63847,-17.18733 1.05835,-10.897495 0.60983,-22.989983 -1.28127,-34.543995 C 336.66194,53.05959 330.31134,35.584843 321.44896,21.17725 315.91289,12.177256 310.60858,5.3690553 304.49614,-0.58208374 292.61232,-12.152311 279.13664,-19.080893 261.87214,-22.497407 c -10.56584,-2.090899 -21.35332,-1.923692 -30.59455,0.474219 -8.43556,2.188856 -19.63615,7.561251 -27.34734,13.1172256 -17.28973,12.4573958 -28.7833,32.2313114 -32.17534,55.3555154 -0.96344,6.56796 -1.3218,14.408026 -0.94624,20.701697 0.26349,4.415612 0.22658,4.260526 1.09976,4.621676 1.29642,0.536203 5.39503,2.938844 7.32756,4.295468 6.03956,4.239753 11.22081,9.834536 15.14573,16.354555 4.36363,7.248815 7.09574,15.509051 8.02352,24.258301 0.50213,4.73521 0.283,11.74318 -0.51359,16.42533 -3.03239,17.82356 -13.8102,32.92054 -28.90753,40.49214 -14.29985,7.17164 -31.16124,6.76625 -44.99987,-1.08191 -9.27325,-5.25904 -16.59566,-13.07908 -21.58234,-23.04908 -5.24481,-10.48611 -7.211791,-22.99582 -5.51465,-35.07248 1.2542,-8.92475 4.49579,-17.381817 9.44373,-24.637999 4.76402,-6.986463 11.12233,-12.807543 18.21924,-16.67986 l 1.32797,-0.72459 -0.10187,-0.695775 c -0.056,-0.382677 -0.17575,-2.848285 -0.26604,-5.479131 -0.31924,-9.302551 0.31411,-19.235215 1.78971,-28.067312 0.74167,-4.439265 1.19746,-6.614128 2.37767,-11.345333 3.81929,-15.310753 10.69672,-30.156734 19.88946,-42.934458 3.77919,-5.252986 7.23133,-9.288434 12.16862,-14.224754 10.88966,-10.887502 23.26002,-19.088714 39.37984,-26.107759 25.34875,-11.037597 53.13993,-11.613952 82.55,-1.711986 25.10871,8.453757 46.1855,24.673287 62.67814,48.2336231 3.18227,4.5460031 7.40282,11.2673359 10.10133,16.0866669 1.57826,2.818642 5.17448,10.009741 6.01246,12.022667 0.23263,0.5588 0.92054,2.174969 1.52869,3.591487 4.11712,9.589663 8.11431,22.08054 10.36567,32.391847 3.02658,13.861796 4.29895,25.522554 4.30647,39.467126 0.004,7.88759 -0.46358,15.72168 -1.2708,21.27988 -1.39698,9.61918 -3.36786,20.58029 -4.92506,27.39099 -2.80751,12.2791 -6.90471,25.38089 -11.33218,36.23734 -0.34183,0.8382 -0.86987,2.1336 -1.17343,2.87867 -0.60339,1.48101 -1.81567,4.34732 -2.29178,5.41866 -6.0842,13.69078 -12.85444,26.66831 -20.89229,40.04734 -14.62923,24.35041 -33.12188,47.98759 -53.04917,67.80709 -5.14605,5.11821 -8.2462,8.07649 -11.82094,11.28001 -0.46248,0.41446 -1.26258,1.13836 -1.778,1.60867 -4.80607,4.38551 -13.88306,11.80995 -20.00951,16.36662 -13.66964,10.16705 -26.79722,18.16257 -40.6176,24.73864 -7.16689,3.41018 -15.52089,6.6792 -22.9695,8.98824 -6.83086,2.11753 -16.01585,3.64684 -25.01296,4.16466 -3.44991,0.19855 -11.37126,0.19102 -15.00955,-0.0143 z m 2.56016,-224.59832 c 2.58879,-0.45724 4.67332,-1.55225 6.55022,-3.44085 6.37773,-6.41746 5.63903,-17.97435 -1.49283,-23.35512 -2.01467,-1.52001 -4.23377,-2.24804 -6.85219,-2.24804 -5.48837,0 -10.14766,3.72126 -11.99391,9.57924 -2.27401,7.21521 0.80788,15.45832 6.88499,18.41526 2.43623,1.1854 4.4237,1.48753 6.90372,1.04951 z"
       id="path1"
       inkscape:export-filename="path1111111111.svg"
       inkscape:export-xdpi="96"
       inkscape:export-ydpi="96" /></g></svg>
